<svg xmlns="http://www.w3.org/2000/svg" viewBox="0 0 128 128">
  <defs>
    <linearGradient id="bg" x1="0%" y1="0%" x2="100%" y2="100%">
      <stop offset="0%" style="stop-color:#0EA5E9;stop-opacity:1" />
      <stop offset="100%" style="stop-color:#0284C7;stop-opacity:1" />
    </linearGradient>
  </defs>
  
  <rect width="128" height="128" rx="28" fill="url(#bg)"/>
  
  <g transform="translate(24, 24)">
    <path d="M16 12 L48 12 L52 24 L68 24 A6 6 0 0 1 74 30 L74 66 A6 6 0 0 1 68 72 L12 72 A6 6 0 0 1 6 66 L6 30 A6 6 0 0 1 12 24 Z" 
          fill="white" 
          opacity="0.95"/>
    
    <rect x="18" y="34" width="44" height="6" rx="2" fill="#0EA5E9"/>
    <rect x="18" y="44" width="44" height="6" rx="2" fill="#06B6D4"/>
    <rect x="18" y="54" width="44" height="6" rx="2" fill="#38BDF8"/>
  </g>
</svg>