<svg xmlns="http://www.w3.org/2000/svg" viewBox="0 0 512 512">
  <rect width="512" height="512" rx="112" fill="#0ea5e9"/>
  <path d="M256 128c-70.69 0-128 57.31-128 128s57.31 128 128 128 128-57.31 128-128-57.31-128-128-128zm0 213.33c-47.13 0-85.33-38.21-85.33-85.33s38.21-85.33 85.33-85.33 85.33 38.21 85.33 85.33-38.21 85.33-85.33 85.33z" fill="white"/>
  <path d="M256 170.67c-47.03 0-85.33 38.3-85.33 85.33s38.3 85.33 85.33 85.33 85.33-38.3 85.33-85.33-38.3-85.33-85.33-85.33zm0 128c-23.57 0-42.67-19.1-42.67-42.67s19.1-42.67 42.67-42.67 42.67 19.1 42.67 42.67-19.1 42.67-42.67 42.67z" fill="white"/>
  <circle cx="256" cy="256" r="21.33" fill="white"/>
  <path d="M256 170.67v-21.33M256 362.67v-21.33M170.67 256h-21.33M362.67 256h-21.33M192 192l-15.08-15.08M335.08 335.08l-15.08-15.08M192 320l-15.08 15.08M335.08 176.92l-15.08 15.08" stroke="white" stroke-width="10.67" stroke-linecap="round"/>
</svg>
