<svg xmlns="http://www.w3.org/2000/svg" viewBox="0 0 192 192">
  <rect width="192" height="192" rx="42" fill="#0ea5e9"/>
  <path d="M96 48c-26.51 0-48 21.49-48 48s21.49 48 48 48 48-21.49 48-48-21.49-48-48-48zm0 80c-17.67 0-32-14.33-32-32s14.33-32 32-32 32 14.33 32 32-14.33 32-32 32z" fill="white"/>
  <path d="M96 68c-15.46 0-28 12.54-28 28s12.54 28 28 28 28-12.54 28-28-12.54-28-28-28zm0 44c-8.82 0-16-7.18-16-16s7.18-16 16-16 16 7.18 16 16-7.18 16-16 16z" fill="white"/>
  <circle cx="96" cy="96" r="8" fill="white"/>
  <path d="M96 64v-8M96 136v-8M64 96h-8M136 96h-8M72 72l-6-6M126 126l-6-6M72 120l-6 6M126 66l-6 6" stroke="white" stroke-width="4" stroke-linecap="round"/>
</svg>
